<?xml version="1.0" encoding="utf-8"?>
<!-- Generator: Adobe Illustrator 16.0.0, SVG Export Plug-In . SVG Version: 6.00 Build 0)  -->
<!DOCTYPE svg PUBLIC "-//W3C//DTD SVG 1.1//EN" "http://www.w3.org/Graphics/SVG/1.1/DTD/svg11.dtd">
<svg version="1.1" id="Layer_1" xmlns="http://www.w3.org/2000/svg" xmlns:xlink="http://www.w3.org/1999/xlink" x="0px" y="0px"
	 width="600px" height="800px" viewBox="0 0 600 800" enable-background="new 0 0 600 800" xml:space="preserve">
<g>
	<path fill="#FFFFFF" d="M245.537,302.478c-4.671,18.81-33.088,127.312-33.088,127.312h69.561c0,0-30.938-108.502-35.56-127.312
		H245.537z"/>
	<path fill="#FFFFFF" d="M0,100v600h600V100H0z M316.514,563.649l-24.3-80.591H202.29l-22.515,80.591h-73.68l96.196-314.257h93.126
		l97.431,314.257H316.514z M491.57,563.649h-70.977V335.747h70.977V563.649L491.57,563.649z M455.647,307.696
		c-22.331,0-37.341-15.927-36.838-35.42c-0.503-20.549,14.508-35.926,37.389-35.926s37.16,15.375,37.707,35.926
		C493.905,291.769,479.08,307.696,455.647,307.696z"/>
</g>
</svg>
