<?xml version="1.0" encoding="utf-8"?>
<!-- Generator: Adobe Illustrator 16.0.0, SVG Export Plug-In . SVG Version: 6.00 Build 0)  -->
<!DOCTYPE svg PUBLIC "-//W3C//DTD SVG 1.1//EN" "http://www.w3.org/Graphics/SVG/1.1/DTD/svg11.dtd">
<svg version="1.1" id="Capa_1" xmlns="http://www.w3.org/2000/svg" xmlns:xlink="http://www.w3.org/1999/xlink" x="0px" y="0px"
	 width="1140px" height="190px" viewBox="0 0 1140 190" enable-background="new 0 0 1140 190" xml:space="preserve">
<rect x="1" fill="#4A366B" width="1140" height="190"/>
<polygon fill="#CCBEB2" points="514.589,189.996 462.211,5.799 482.604,0 541.79,6.771 594.345,189 "/>
<g>
	<polygon fill="#F4F0EA" points="719.702,186.363 701.075,190 516.981,189.998 462.292,0 665.025,0 	"/>
	
		<line fill="none" stroke="#30AFB2" stroke-width="0.25" stroke-miterlimit="10" x1="500.573" y1="54.066" x2="648.021" y2="11.348"/>
	
		<line fill="none" stroke="#30AFB2" stroke-width="0.25" stroke-miterlimit="10" x1="513.211" y1="97.688" x2="660.657" y2="54.968"/>
	
		<line fill="none" stroke="#30AFB2" stroke-width="0.25" stroke-miterlimit="10" x1="519.53" y1="119.497" x2="666.977" y2="76.777"/>
	
		<line fill="none" stroke="#30AFB2" stroke-width="0.25" stroke-miterlimit="10" x1="525.847" y1="141.305" x2="673.295" y2="98.588"/>
	
		<line fill="none" stroke="#30AFB2" stroke-width="0.25" stroke-miterlimit="10" x1="532.168" y1="163.115" x2="679.614" y2="120.398"/>
	
		<line fill="none" stroke="#30AFB2" stroke-width="0.25" stroke-miterlimit="10" x1="538.484" y1="184.926" x2="685.933" y2="142.206"/>
	
		<line fill="none" stroke="#30AFB2" stroke-width="0.25" stroke-miterlimit="10" x1="506.893" y1="75.876" x2="654.339" y2="33.158"/>
</g>
<polygon fill="#CCBEB2" points="574.202,189.995 526.313,21.585 599.604,0.744 654.339,189.995 "/>
<g>
	<polygon fill="#F4F0EA" points="576.917,190.007 526.395,15.62 580.308,0 725.645,0 780.69,189.997 	"/>
	
		<line fill="none" stroke="#30AFB2" stroke-width="0.25" stroke-miterlimit="10" x1="564.678" y1="68.457" x2="712.123" y2="25.739"/>
	
		<line fill="none" stroke="#30AFB2" stroke-width="0.25" stroke-miterlimit="10" x1="577.313" y1="112.076" x2="724.761" y2="69.358"/>
	
		<line fill="none" stroke="#30AFB2" stroke-width="0.25" stroke-miterlimit="10" x1="583.633" y1="133.889" x2="731.079" y2="91.169"/>
	
		<line fill="none" stroke="#30AFB2" stroke-width="0.25" stroke-miterlimit="10" x1="589.951" y1="155.695" x2="737.396" y2="112.979"/>
	
		<line fill="none" stroke="#30AFB2" stroke-width="0.25" stroke-miterlimit="10" x1="596.271" y1="177.507" x2="743.717" y2="134.79"/>
	
		<line fill="none" stroke="#30AFB2" stroke-width="0.25" stroke-miterlimit="10" x1="634.765" y1="189.995" x2="750.035" y2="156.598"/>
	
		<line fill="none" stroke="#30AFB2" stroke-width="0.25" stroke-miterlimit="10" x1="570.997" y1="90.27" x2="718.441" y2="47.551"/>
</g>
<g>
	<path fill="#A09F9F" d="M843.754,108.529c5.687,3.826,8.131,10.144,5.462,14.109c-2.669,3.963-9.44,4.068-15.129,0.237
		c-5.684-3.828-8.129-10.144-5.46-14.106C831.296,104.805,838.067,104.698,843.754,108.529z"/>
	
		<rect x="772.252" y="9.232" transform="matrix(-0.5586 0.8294 -0.8294 -0.5586 1279.8622 -528.797)" fill="#A09F9F" width="16.764" height="133.834"/>
	
		<rect x="824.456" y="106.363" transform="matrix(-0.5585 0.8295 -0.8295 -0.5585 1391.1462 -516.8305)" fill="#A09F9F" width="17.306" height="10.851"/>
	
		<rect x="834.995" y="103.29" transform="matrix(-0.5579 0.8299 -0.8299 -0.5579 1390.9995 -526.3609)" fill="#A09F9F" width="1.397" height="8.033"/>
	<polygon fill="#A09F9F" points="720.483,45.718 704.52,24.858 729.851,31.813 	"/>
	<polygon fill="#A09F9F" points="704.52,24.858 710.091,32.14 713.361,27.284 	"/>
</g>
<g>
	<path fill="#FFFFFF" d="M843.754,107.65c5.687,3.83,8.131,10.146,5.462,14.109s-9.44,4.071-15.129,0.24
		c-5.684-3.83-8.129-10.145-5.46-14.107C831.296,103.927,838.067,103.822,843.754,107.65z"/>
	
		<rect x="772.29" y="8.385" transform="matrix(-0.5586 0.8294 -0.8294 -0.5586 1279.2495 -530.1255)" fill="#30AFB2" width="16.766" height="133.834"/>
	
		<rect x="824.5" y="105.461" transform="matrix(-0.5585 0.8295 -0.8295 -0.5585 1390.4868 -518.2542)" fill="#C8C8C8" width="17.306" height="10.852"/>
	
		<rect x="834.996" y="102.414" transform="matrix(-0.5582 0.8297 -0.8297 -0.5582 1390.5195 -527.5098)" fill="#FFFFFF" width="1.396" height="8.033"/>
	<polygon fill="#FCE195" points="720.483,44.84 704.52,23.981 729.851,30.936 	"/>
	<polygon points="704.52,23.981 710.091,31.263 713.361,26.407 	"/>
</g>
<g>
	<path fill="#BCBCBC" d="M899.638,175.607c0.009,6.854-3.854,12.416-8.633,12.429c-4.776,0.006-8.66-5.547-8.67-12.403
		c-0.01-6.852,3.853-12.415,8.631-12.423C895.747,163.199,899.625,168.752,899.638,175.607z"/>
	
		<rect x="882.761" y="38.281" transform="matrix(-1 0.0017 -0.0017 -1 1782.4626 208.8928)" fill="#BCBCBC" width="16.764" height="133.837"/>
	
		<rect x="882.318" y="163.241" transform="matrix(-1 0.0016 -0.0016 -1 1782.2163 335.8765)" fill="#BCBCBC" width="17.305" height="10.854"/>
	<rect x="895.438" y="164.273" fill="#BCBCBC" width="1.396" height="8.033"/>
	<polygon fill="#BCBCBC" points="882.65,38.305 890.994,13.397 899.416,38.279 	"/>
	<polygon fill="#BCBCBC" points="890.994,13.397 888.08,22.09 893.934,22.08 	"/>
</g>
<g>
	<path fill="#FFFFFF" d="M900.262,175.607c0.008,6.854-3.854,12.416-8.633,12.429c-4.777,0.006-8.659-5.547-8.67-12.403
		c-0.01-6.852,3.854-12.415,8.631-12.423C896.371,163.199,900.249,168.752,900.262,175.607z"/>
	
		<rect x="883.385" y="38.281" transform="matrix(-1 0.0017 -0.0017 -1 1783.7115 208.892)" fill="#30AFB2" width="16.766" height="133.837"/>
	
		<rect x="882.942" y="163.241" transform="matrix(-1 0.0016 -0.0016 -1 1783.4644 335.8755)" fill="#C8C8C8" width="17.305" height="10.854"/>
	<rect x="896.061" y="164.273" fill="#FFFFFF" width="1.396" height="8.033"/>
	<polygon fill="#FCE195" points="883.274,38.305 891.618,13.397 900.04,38.279 	"/>
	<polygon points="891.618,13.397 888.704,22.09 894.558,22.08 	"/>
</g>
<rect x="932.333" y="82.48" fill="#D3D1CD" width="186.923" height="93.45"/>
<rect x="934.41" y="82.48" fill="#FFFFFF" width="186.923" height="93.45"/>
<polygon fill="#FFFFFF" points="934.41,82.48 1027.871,11.662 1121.333,82.48 "/>
<polygon fill="#D3D1CD" points="934.41,82.48 1027.871,129.205 1121.333,82.48 "/>
<g>
	
		<rect x="425.951" y="87.989" transform="matrix(-0.8525 0.5227 -0.5227 -0.8525 857.6742 -40.32)" fill="#D3D1D3" width="17.148" height="25.7"/>
	<path fill="#E88F36" d="M437.487,122.05c-18.662,11.451-50.943,31.252-50.943,31.252c-7.398,4.538-17.989,0.72-23.665-8.532
		c-5.677-9.254-4.283-20.429,3.118-24.968c0,0,32.278-19.803,50.943-31.25"/>
	<path fill="#E88F36" d="M439.237,74.874c7.588-4.655,12.928-7.928,12.928-7.928c7.394-4.537,17.986-0.715,23.663,8.539
		c5.674,9.251,4.278,20.424-3.116,24.96c0,0-5.337,3.275-12.925,7.932"/>
	
		<rect x="428.272" y="96.445" transform="matrix(-0.8522 0.5233 -0.5233 -0.8522 850.0474 -44.2515)" width="6.005" height="3.005"/>
	
		<rect x="432.055" y="102.674" transform="matrix(-0.8526 0.5226 -0.5226 -0.8526 860.4154 -34.3618)" width="5.999" height="3.001"/>
	
		<rect x="428.804" y="88.024" transform="matrix(-0.8524 0.5229 -0.5229 -0.8524 846.6137 -62.5965)" fill="#FFFFFF" width="6.673" height="0.321"/>
	<path fill="#D62783" d="M462.021,67.793c0.373,0.604,0.18,1.395-0.426,1.763c-0.6,0.369-1.394,0.183-1.762-0.421
		c-0.371-0.603-0.18-1.395,0.423-1.764C460.858,67.003,461.652,67.188,462.021,67.793z"/>
	
		<rect x="418.091" y="90.981" transform="matrix(-0.8522 0.5232 -0.5232 -0.8522 825.8304 -41.1986)" fill="#D62783" width="1.287" height="10.13"/>
</g>
<g>
	
		<rect x="422.751" y="85.675" transform="matrix(-0.8524 0.5229 -0.5229 -0.8524 850.5072 -43.0255)" fill="#D3D1D3" width="17.149" height="25.704"/>
	<path fill="#F7C548" d="M434.291,119.773c-18.663,11.449-50.943,31.25-50.943,31.25c-7.399,4.541-17.989,0.723-23.666-8.529
		c-5.676-9.254-4.28-20.432,3.118-24.969c0,0,32.281-19.803,50.943-31.25"/>
	<path fill="#F7C548" d="M436.04,72.597c7.588-4.654,12.928-7.928,12.928-7.928c7.395-4.538,17.987-0.715,23.663,8.539
		c5.674,9.251,4.28,20.425-3.115,24.96c0,0-5.338,3.273-12.926,7.93"/>
	<rect x="425.057" y="94.173" transform="matrix(-0.8522 0.5232 -0.5232 -0.8522 842.9098 -46.7465)" width="6" height="3.003"/>
	
		<rect x="428.86" y="100.398" transform="matrix(-0.8527 0.5225 -0.5225 -0.8527 853.3257 -36.8497)" width="5.998" height="3.001"/>
	
		<rect x="425.609" y="85.746" transform="matrix(-0.8524 0.5229 -0.5229 -0.8524 839.4906 -65.1753)" fill="#FFFFFF" width="6.673" height="0.322"/>
	<path fill="#D62783" d="M458.826,65.517c0.371,0.603,0.177,1.395-0.425,1.763c-0.604,0.369-1.396,0.183-1.766-0.421
		c-0.368-0.604-0.179-1.395,0.425-1.765C457.661,64.727,458.455,64.912,458.826,65.517z"/>
	
		<rect x="414.875" y="88.721" transform="matrix(-0.8527 0.5224 -0.5224 -0.8527 818.8242 -43.3098)" fill="#D62783" width="1.286" height="10.131"/>
</g>
</svg>
