<?xml version="1.0" encoding="utf-8"?>
<!-- Generator: Adobe Illustrator 16.0.0, SVG Export Plug-In . SVG Version: 6.00 Build 0)  -->
<!DOCTYPE svg PUBLIC "-//W3C//DTD SVG 1.1//EN" "http://www.w3.org/Graphics/SVG/1.1/DTD/svg11.dtd">
<svg version="1.1" id="Capa_1" xmlns="http://www.w3.org/2000/svg" xmlns:xlink="http://www.w3.org/1999/xlink" x="0px" y="0px"
	 width="1140px" height="190px" viewBox="0 0 1140 190" enable-background="new 0 0 1140 190" xml:space="preserve">
<rect x="1" fill="#F59F42" width="1140" height="190"/>
<polygon fill="#CCBEB2" points="514.589,189.996 462.211,5.799 482.604,0 541.79,6.771 594.345,189 "/>
<g>
	<polygon fill="#F4F0EA" points="719.702,186.363 701.075,190 516.981,189.998 462.292,0 665.025,0 	"/>
	
		<line fill="none" stroke="#30AFB2" stroke-width="0.25" stroke-miterlimit="10" x1="500.573" y1="54.066" x2="648.021" y2="11.348"/>
	
		<line fill="none" stroke="#30AFB2" stroke-width="0.25" stroke-miterlimit="10" x1="513.211" y1="97.687" x2="660.657" y2="54.968"/>
	
		<line fill="none" stroke="#30AFB2" stroke-width="0.25" stroke-miterlimit="10" x1="519.53" y1="119.497" x2="666.977" y2="76.777"/>
	
		<line fill="none" stroke="#30AFB2" stroke-width="0.25" stroke-miterlimit="10" x1="525.847" y1="141.305" x2="673.295" y2="98.588"/>
	
		<line fill="none" stroke="#30AFB2" stroke-width="0.25" stroke-miterlimit="10" x1="532.168" y1="163.115" x2="679.614" y2="120.398"/>
	
		<line fill="none" stroke="#30AFB2" stroke-width="0.25" stroke-miterlimit="10" x1="538.484" y1="184.926" x2="685.933" y2="142.206"/>
	
		<line fill="none" stroke="#30AFB2" stroke-width="0.25" stroke-miterlimit="10" x1="506.893" y1="75.876" x2="654.339" y2="33.158"/>
</g>
<polygon fill="#CCBEB2" points="574.202,189.995 526.313,21.585 599.603,0.744 654.339,189.995 "/>
<g>
	<polygon fill="#F4F0EA" points="576.917,190.007 526.395,15.62 580.308,0 725.645,0 780.69,189.997 	"/>
	
		<line fill="none" stroke="#30AFB2" stroke-width="0.25" stroke-miterlimit="10" x1="564.678" y1="68.457" x2="712.123" y2="25.739"/>
	
		<line fill="none" stroke="#30AFB2" stroke-width="0.25" stroke-miterlimit="10" x1="577.313" y1="112.076" x2="724.761" y2="69.358"/>
	
		<line fill="none" stroke="#30AFB2" stroke-width="0.25" stroke-miterlimit="10" x1="583.633" y1="133.889" x2="731.079" y2="91.169"/>
	
		<line fill="none" stroke="#30AFB2" stroke-width="0.25" stroke-miterlimit="10" x1="589.951" y1="155.696" x2="737.397" y2="112.979"/>
	
		<line fill="none" stroke="#30AFB2" stroke-width="0.25" stroke-miterlimit="10" x1="596.271" y1="177.507" x2="743.717" y2="134.79"/>
	
		<line fill="none" stroke="#30AFB2" stroke-width="0.25" stroke-miterlimit="10" x1="634.765" y1="189.995" x2="750.035" y2="156.598"/>
	
		<line fill="none" stroke="#30AFB2" stroke-width="0.25" stroke-miterlimit="10" x1="570.997" y1="90.27" x2="718.441" y2="47.551"/>
</g>
<g>
	<path fill="#A09F9F" d="M843.754,108.529c5.686,3.827,8.131,10.144,5.462,14.109c-2.669,3.963-9.441,4.069-15.129,0.238
		c-5.684-3.828-8.129-10.144-5.46-14.106C831.296,104.805,838.067,104.698,843.754,108.529z"/>
	
		<rect x="772.288" y="9.229" transform="matrix(0.5586 -0.8294 0.8294 0.5586 281.3947 681.1008)" fill="#A09F9F" width="16.764" height="133.838"/>
	
		<rect x="824.474" y="106.374" transform="matrix(0.5585 -0.8295 0.8295 0.5585 275.0699 740.4269)" fill="#A09F9F" width="17.306" height="10.851"/>
	
		<rect x="835.032" y="103.316" transform="matrix(0.5582 -0.8297 0.8297 0.5582 280.136 740.7989)" fill="#A09F9F" width="1.396" height="8.032"/>
	<polygon fill="#A09F9F" points="720.483,45.718 704.52,24.858 729.851,31.813 	"/>
	<polygon fill="#A09F9F" points="704.52,24.858 710.091,32.14 713.361,27.284 	"/>
</g>
<g>
	<path fill="#FFFFFF" d="M843.754,107.651c5.686,3.829,8.131,10.146,5.462,14.109c-2.669,3.963-9.441,4.071-15.129,0.24
		c-5.684-3.83-8.129-10.144-5.46-14.108C831.296,103.927,838.067,103.822,843.754,107.651z"/>
	
		<rect x="772.288" y="8.35" transform="matrix(0.5586 -0.8294 0.8294 0.5586 282.162 680.7458)" fill="#30AFB2" width="16.766" height="133.839"/>
	
		<rect x="824.475" y="105.497" transform="matrix(0.5586 -0.8295 0.8295 0.5586 275.7576 740.0046)" fill="#C8C8C8" width="17.305" height="10.851"/>
	
		<rect x="835.032" y="102.439" transform="matrix(0.5582 -0.8297 0.8297 0.5582 280.8635 740.4115)" fill="#FFFFFF" width="1.396" height="8.033"/>
	<polygon fill="#FCE195" points="720.483,44.84 704.52,23.981 729.851,30.936 	"/>
	<polygon points="704.52,23.981 710.091,31.263 713.361,26.407 	"/>
</g>
<g>
	<path fill="#BCBCBC" d="M899.638,175.608c0.008,6.853-3.854,12.415-8.633,12.428c-4.777,0.006-8.66-5.547-8.67-12.403
		c-0.01-6.852,3.852-12.415,8.631-12.423C895.747,163.199,899.625,168.752,899.638,175.608z"/>
	
		<rect x="882.759" y="38.29" transform="matrix(1 -0.0017 0.0017 1 -0.1765 1.5056)" fill="#BCBCBC" width="16.764" height="133.837"/>
	
		<rect x="882.323" y="163.208" transform="matrix(1 -0.0016 0.0016 1 -0.2748 1.4584)" fill="#BCBCBC" width="17.305" height="10.853"/>
	<rect x="895.437" y="164.274" fill="#BCBCBC" width="1.396" height="8.033"/>
	<polygon fill="#BCBCBC" points="882.65,38.305 890.994,13.397 899.416,38.279 	"/>
	<polygon fill="#BCBCBC" points="890.994,13.397 888.08,22.09 893.934,22.08 	"/>
</g>
<g>
	<path fill="#FFFFFF" d="M900.262,175.608c0.008,6.853-3.854,12.415-8.633,12.428c-4.777,0.006-8.659-5.547-8.67-12.403
		c-0.01-6.852,3.853-12.415,8.631-12.423C896.371,163.199,900.249,168.752,900.262,175.608z"/>
	
		<rect x="883.383" y="38.29" transform="matrix(1 -0.0017 0.0017 1 -0.1765 1.5066)" fill="#30AFB2" width="16.765" height="133.837"/>
	
		<rect x="882.947" y="163.208" transform="matrix(1 -0.0016 0.0016 1 -0.2748 1.4594)" fill="#C8C8C8" width="17.305" height="10.853"/>
	<rect x="896.061" y="164.274" fill="#FFFFFF" width="1.396" height="8.033"/>
	<polygon fill="#FCE195" points="883.274,38.305 891.618,13.397 900.04,38.279 	"/>
	<polygon points="891.618,13.397 888.704,22.09 894.558,22.08 	"/>
</g>
<rect x="932.333" y="82.48" fill="#D3D1CD" width="186.923" height="93.449"/>
<rect x="934.41" y="82.48" fill="#FFFFFF" width="186.923" height="93.449"/>
<polygon fill="#FFFFFF" points="934.41,82.48 1027.871,11.662 1121.333,82.48 "/>
<polygon fill="#D3D1CD" points="934.41,82.48 1027.871,129.205 1121.333,82.48 "/>
<g>
	
		<rect x="425.951" y="87.968" transform="matrix(0.8525 -0.5227 0.5227 0.8525 11.3951 242.0179)" fill="#D3D1D3" width="17.148" height="25.701"/>
	<path fill="#D62783" d="M437.487,122.05c-18.662,11.451-50.943,31.252-50.943,31.252c-7.398,4.538-17.989,0.72-23.665-8.532
		c-5.677-9.254-4.283-20.429,3.118-24.968c0,0,32.278-19.803,50.943-31.25"/>
	<path fill="#D62783" d="M439.237,74.874c7.588-4.655,12.928-7.928,12.928-7.928c7.394-4.537,17.986-0.715,23.663,8.539
		c5.674,9.251,4.278,20.424-3.116,24.96c0,0-5.337,3.275-12.925,7.932"/>
	<rect x="428.255" y="96.454" transform="matrix(0.8522 -0.5233 0.5233 0.8522 12.4969 240.1458)" width="6.004" height="3.005"/>
	<rect x="432.069" y="102.67" transform="matrix(0.8526 -0.5225 0.5225 0.8526 9.6856 242.6819)" width="5.999" height="3.001"/>
	
		<rect x="428.808" y="88.041" transform="matrix(0.8524 -0.5229 0.5229 0.8524 17.6604 238.9699)" fill="#FFFFFF" width="6.673" height="0.321"/>
	<path fill="#D62783" d="M462.021,67.793c0.374,0.604,0.18,1.395-0.425,1.763c-0.6,0.369-1.394,0.183-1.762-0.421
		c-0.371-0.603-0.18-1.395,0.423-1.764C460.858,67.003,461.652,67.188,462.021,67.793z"/>
	
		<rect x="418.07" y="90.997" transform="matrix(0.8524 -0.523 0.523 0.8524 11.5825 233.1501)" fill="#D62783" width="1.287" height="10.129"/>
</g>
<g>
	
		<rect x="422.754" y="85.689" transform="matrix(0.8524 -0.5229 0.5229 0.8524 12.1349 240.0724)" fill="#D3D1D3" width="17.149" height="25.704"/>
	<path fill="#D62783" d="M434.291,119.774c-18.663,11.448-50.943,31.249-50.943,31.249c-7.399,4.541-17.989,0.723-23.666-8.529
		c-5.676-9.254-4.28-20.432,3.118-24.968c0,0,32.281-19.803,50.943-31.25"/>
	<path fill="#D62783" d="M436.04,72.597c7.588-4.654,12.928-7.928,12.928-7.928c7.394-4.538,17.987-0.715,23.663,8.539
		c5.674,9.251,4.28,20.425-3.115,24.96c0,0-5.338,3.273-12.926,7.93"/>
	<rect x="425.062" y="94.178" transform="matrix(0.8522 -0.5232 0.5232 0.8522 13.2029 238.099)" width="6" height="3.003"/>
	<rect x="428.874" y="100.394" transform="matrix(0.8526 -0.5225 0.5225 0.8526 10.4037 240.6775)" width="5.999" height="3.001"/>
	
		<rect x="425.612" y="85.763" transform="matrix(0.8524 -0.5229 0.5229 0.8524 18.3791 236.9629)" fill="#FFFFFF" width="6.673" height="0.322"/>
	<path fill="#D62783" d="M458.826,65.517c0.371,0.603,0.177,1.395-0.425,1.763c-0.603,0.369-1.396,0.183-1.765-0.421
		c-0.368-0.604-0.179-1.395,0.425-1.765C457.661,64.727,458.455,64.912,458.826,65.517z"/>
	
		<rect x="414.875" y="88.72" transform="matrix(0.8527 -0.5224 0.5224 0.8527 12.2122 230.8818)" fill="#D62783" width="1.286" height="10.131"/>
</g>
</svg>
