<?xml version="1.0" encoding="utf-8"?>
<!-- Generator: Adobe Illustrator 16.0.0, SVG Export Plug-In . SVG Version: 6.00 Build 0)  -->
<!DOCTYPE svg PUBLIC "-//W3C//DTD SVG 1.1//EN" "http://www.w3.org/Graphics/SVG/1.1/DTD/svg11.dtd">
<svg version="1.1" id="Capa_1" xmlns="http://www.w3.org/2000/svg" xmlns:xlink="http://www.w3.org/1999/xlink" x="0px" y="0px"
	 width="1140px" height="190px" viewBox="0 0 1140 190" enable-background="new 0 0 1140 190" xml:space="preserve">
<rect fill="#79C6C6" width="1140" height="190"/>
<polygon fill="#F9F9F9" points="900.199,190 943.5,28.5 986.801,190 "/>
<polygon fill="#4F251D" points="916.743,128.297 900.199,190 986.801,190 961.33,95 943.5,157.5 "/>
<polygon fill="#F9F9F9" points="729.199,190 812,4.5 894.801,190 "/>
<polygon fill="#4F251D" points="760.835,119.127 729.199,190 894.801,190 846.096,80.882 842.5,135.441 830.5,113.5 818.5,135.441 
	807.5,109.25 767.5,158.5 "/>
<polygon fill="#381413" points="760.835,119.127 729.199,190 763.5,190 767.5,158.5 "/>
<polygon fill="#F9F9F9" points="671.199,190 714.5,115.5 757.801,190 "/>
<polygon fill="#4F251D" points="687.743,161.536 671.199,190 757.801,190 732.33,146.177 693.5,177.5 "/>
<polygon fill="#381413" points="916.743,128.297 900.199,190 943.5,190 943.5,157.5 "/>
<polygon fill="#381413" points="671.199,190 687.743,161.536 693.5,177.5 716.25,159.148 700.5,190 "/>
<g>
	<polygon fill="#FFFFFF" points="375.528,65.083 389.139,46.762 375.528,28.441 348.305,28.441 334.693,46.762 348.305,65.083 	"/>
	<polygon fill="#E2E2E2" points="375.528,28.441 368.166,44.23 389.139,46.762 	"/>
	<polygon fill="#C6C4C4" points="389.139,46.762 402.194,59.475 398.927,65.083 389.139,69.003 	"/>
	<polygon fill="#EAEAEA" points="375.528,65.083 389.139,69.003 389.139,46.762 	"/>
	<polygon fill="#EAEAEA" points="375.528,65.083 365.988,71.181 355.371,73.359 349.926,70.029 348.305,65.083 	"/>
	<path fill="#C6C4C4" d="M389.139,69.003c0,0-11.99,6.261-23.151,2.178l9.54-6.098L389.139,69.003z"/>
	<polygon fill="#EFEFEF" points="375.528,65.083 359.182,42.325 389.139,46.762 	"/>
	<polygon fill="#F4F4F4" points="348.305,65.083 330.507,65.083 325.062,46.762 334.693,46.762 	"/>
	<polygon fill="#EFEFEF" points="348.305,28.441 328.511,33.161 334.693,46.762 	"/>
	<polygon fill="#EFEAEA" points="361.343,45.333 334.693,46.762 348.305,65.083 375.528,65.083 	"/>
	<polygon fill="#FCFCFC" points="325.062,46.762 334.693,46.762 328.511,33.161 323.429,37.601 	"/>
</g>
<g>
	<polygon fill="#FFFFFF" points="93.397,155.057 107.009,136.736 93.397,118.414 66.174,118.414 52.563,136.736 66.174,155.057 	"/>
	<polygon fill="#E2E2E2" points="93.397,118.414 86.035,134.203 107.009,136.736 	"/>
	<polygon fill="#C6C4C4" points="107.009,136.736 120.064,149.449 116.797,155.057 107.009,158.977 	"/>
	<polygon fill="#EAEAEA" points="93.397,155.057 107.009,158.977 107.009,136.736 	"/>
	<polygon fill="#EAEAEA" points="93.397,155.057 83.857,161.154 73.24,163.332 67.796,160.002 66.174,155.057 	"/>
	<path fill="#C6C4C4" d="M107.009,158.977c0,0-11.99,6.262-23.151,2.178l9.54-6.098L107.009,158.977z"/>
	<polygon fill="#EFEFEF" points="93.397,155.057 77.052,132.299 107.009,136.736 	"/>
	<polygon fill="#F4F4F4" points="66.174,155.057 48.376,155.057 42.932,136.736 52.563,136.736 	"/>
	<polygon fill="#EFEFEF" points="66.174,118.414 46.38,123.135 52.563,136.736 	"/>
	<polygon fill="#EFEAEA" points="79.212,135.307 52.563,136.736 66.174,155.057 93.397,155.057 	"/>
	<polygon fill="#FCFCFC" points="42.932,136.736 52.563,136.736 46.38,123.135 41.298,127.574 	"/>
</g>
<g>
	<polygon fill="#FFFFFF" points="414.478,71.8 389.478,38.15 414.478,4.5 464.478,4.5 489.478,38.15 464.478,71.8 	"/>
	<polygon fill="#E2E2E2" points="414.478,4.5 428,33.5 389.478,38.15 	"/>
	<polygon fill="#C6C4C4" points="389.478,38.15 365.5,61.5 371.5,71.8 389.478,79 	"/>
	<polygon fill="#EAEAEA" points="414.478,71.8 389.478,79 389.478,38.15 	"/>
	<polygon fill="#EAEAEA" points="414.478,71.8 432,83 451.5,87 461.5,80.882 464.478,71.8 	"/>
	<path fill="#C6C4C4" d="M389.478,79c0,0,22.022,11.5,42.522,4l-17.522-11.2L389.478,79z"/>
	<polygon fill="#EFEFEF" points="414.478,71.8 444.5,30 389.478,38.15 	"/>
	<polygon fill="#F4F4F4" points="464.478,71.8 497.167,71.8 507.167,38.15 489.478,38.15 	"/>
	<polygon fill="#EFEFEF" points="464.478,4.5 500.833,13.17 489.478,38.15 	"/>
	<polygon fill="#FCFCFC" points="507.167,38.15 489.478,38.15 500.833,13.17 510.167,21.325 	"/>
	<polygon fill="#EFEAEA" points="440.531,35.526 489.478,38.15 464.478,71.8 414.478,71.8 	"/>
</g>
<g>
	<polygon fill="#FFFFFF" points="1000.114,107.224 975.114,140.874 1000.114,174.524 1050.114,174.524 1075.114,140.874 
		1050.114,107.224 	"/>
	<polygon fill="#E2E2E2" points="1000.114,174.524 1013.637,145.524 975.114,140.874 	"/>
	<polygon fill="#C6C4C4" points="975.114,140.874 951.137,117.524 957.137,107.224 975.114,100.024 	"/>
	<polygon fill="#EAEAEA" points="1000.114,107.224 975.114,100.024 975.114,140.874 	"/>
	<polygon fill="#EAEAEA" points="1000.114,107.224 1017.637,96.024 1037.137,92.024 1047.137,98.142 1050.114,107.224 	"/>
	<path fill="#C6C4C4" d="M975.114,100.024c0,0,22.022-11.5,42.522-4l-17.522,11.199L975.114,100.024z"/>
	<polygon fill="#EFEFEF" points="1000.114,107.224 1030.137,149.024 975.114,140.874 	"/>
	<polygon fill="#F4F4F4" points="1050.114,107.224 1082.804,107.224 1092.804,140.874 1075.114,140.874 	"/>
	<polygon fill="#EFEFEF" points="1050.114,174.524 1086.47,165.854 1075.114,140.874 	"/>
	<polygon fill="#FCFCFC" points="1092.804,140.874 1075.114,140.874 1086.47,165.854 1095.804,157.699 	"/>
	<polygon fill="#EFEAEA" points="1026.168,143.499 1075.114,140.874 1050.114,107.224 1000.114,107.224 	"/>
</g>
</svg>
