<?xml version="1.0" encoding="utf-8"?>
<!-- Generator: Adobe Illustrator 16.0.0, SVG Export Plug-In . SVG Version: 6.00 Build 0)  -->
<!DOCTYPE svg PUBLIC "-//W3C//DTD SVG 1.1//EN" "http://www.w3.org/Graphics/SVG/1.1/DTD/svg11.dtd">
<svg version="1.1" id="Capa_1" xmlns="http://www.w3.org/2000/svg" xmlns:xlink="http://www.w3.org/1999/xlink" x="0px" y="0px"
	 width="1140px" height="190px" viewBox="0 0 1140 190" enable-background="new 0 0 1140 190" xml:space="preserve">
<linearGradient id="SVGID_1_" gradientUnits="userSpaceOnUse" x1="569.9995" y1="5" x2="569.9995" y2="187">
	<stop  offset="0" style="stop-color:#823294"/>
	<stop  offset="1" style="stop-color:#C67F72"/>
</linearGradient>
<rect y="1" fill="url(#SVGID_1_)" width="1140" height="190"/>
<linearGradient id="SVGID_2_" gradientUnits="userSpaceOnUse" x1="186.061" y1="28.0361" x2="185.0434" y2="86.0399">
	<stop  offset="0.0681" style="stop-color:#FFFFFF"/>
	<stop  offset="1" style="stop-color:#FFFFFF;stop-opacity:0"/>
</linearGradient>
<path fill="url(#SVGID_2_)" d="M190.5,27c-45.011,0-81.5,9.626-81.5,21.5c0,4.223,4.634,8.159,12.607,11.481
	C108.322,61.878,99,66.321,99,71.5c0,6.903,16.565,12.5,37,12.5s37-5.597,37-12.5c0-0.692-0.174-1.371-0.495-2.032
	C178.297,69.812,184.314,70,190.5,70c45.011,0,81.5-9.626,81.5-21.5S235.511,27,190.5,27z"/>
<linearGradient id="SVGID_3_" gradientUnits="userSpaceOnUse" x1="993.0605" y1="85.0361" x2="992.0429" y2="143.0399">
	<stop  offset="0.0681" style="stop-color:#FFFFFF"/>
	<stop  offset="1" style="stop-color:#FFFFFF;stop-opacity:0"/>
</linearGradient>
<path fill="url(#SVGID_3_)" d="M997.5,84c-45.012,0-81.5,9.626-81.5,21.5c0,4.223,4.634,8.158,12.607,11.48
	C915.322,118.878,906,123.321,906,128.5c0,6.903,16.565,12.5,37,12.5s37-5.597,37-12.5c0-0.692-0.174-1.371-0.494-2.032
	c5.791,0.345,11.809,0.532,17.994,0.532c45.012,0,81.5-9.626,81.5-21.5S1042.512,84,997.5,84z"/>
<g>
	
		<linearGradient id="SVGID_4_" gradientUnits="userSpaceOnUse" x1="485.9663" y1="108.0898" x2="666" y2="108.0898" gradientTransform="matrix(0.9708 -0.2397 0.2397 0.9708 -9.1165 141.2293)">
		<stop  offset="0" style="stop-color:#FFE4B3"/>
		<stop  offset="0.5" style="stop-color:#F36A46;stop-opacity:0.7"/>
		<stop  offset="0.9267" style="stop-color:#FB8BD3;stop-opacity:0"/>
	</linearGradient>
	<path fill="url(#SVGID_4_)" d="M658.319,66.035c0,0-7.91,4.367-19.971,11.024c-6.036,3.327-13.109,7.226-20.752,11.438
		c-7.686,4.124-15.942,8.554-24.298,13.037c-33.417,17.868-68.393,36.572-74.652,39.92c-12.657,6.372-24.07,9.312-25.489,6.565
		c-1.419-2.745,7.739-10.164,20.455-16.566c1.589-0.8,5.039-2.438,9.859-4.694c2.412-1.124,5.164-2.405,8.195-3.817
		c3.047-1.373,6.375-2.871,9.922-4.47c14.205-6.336,31.929-14.241,49.248-21.966c8.662-3.846,17.224-7.647,25.193-11.185
		c7.929-3.618,15.269-6.967,21.532-9.824C650.098,69.783,658.319,66.035,658.319,66.035z"/>
</g>
<g>
	<linearGradient id="SVGID_5_" gradientUnits="userSpaceOnUse" x1="295.5" y1="114.5" x2="344" y2="114.5">
		<stop  offset="0" style="stop-color:#FFE4B3"/>
		<stop  offset="0.5" style="stop-color:#F37746;stop-opacity:0.5"/>
		<stop  offset="0.9267" style="stop-color:#FB8BD3;stop-opacity:0"/>
	</linearGradient>
	<line fill="url(#SVGID_5_)" x1="344" y1="103" x2="295.5" y2="126"/>
	<g>
		<linearGradient id="SVGID_6_" gradientUnits="userSpaceOnUse" x1="295.4053" y1="114.8867" x2="344" y2="114.8867">
			<stop  offset="0" style="stop-color:#FFE4B3"/>
			<stop  offset="0.5" style="stop-color:#F37746;stop-opacity:0.5"/>
			<stop  offset="0.9267" style="stop-color:#FB8BD3;stop-opacity:0"/>
		</linearGradient>
		<path fill="url(#SVGID_6_)" d="M344,103c0,0-38.762,21.042-41.86,22.511c-3.099,1.47-6.071,1.688-6.64,0.489
			s1.482-3.362,4.58-4.832C303.179,119.698,344,103,344,103z"/>
	</g>
</g>
<g>
	<linearGradient id="SVGID_7_" gradientUnits="userSpaceOnUse" x1="826.959" y1="66.0117" x2="936.6611" y2="66.0117">
		<stop  offset="0" style="stop-color:#FFE4B3"/>
		<stop  offset="0.5" style="stop-color:#F37746;stop-opacity:0.5"/>
		<stop  offset="0.9267" style="stop-color:#FB8BD3;stop-opacity:0"/>
	</linearGradient>
	<line fill="url(#SVGID_7_)" x1="936.661" y1="40" x2="826.959" y2="92.023"/>
	<g>
		<linearGradient id="SVGID_8_" gradientUnits="userSpaceOnUse" x1="826.7451" y1="66.8867" x2="936.6611" y2="66.8867">
			<stop  offset="0" style="stop-color:#FFE4B3"/>
			<stop  offset="0.5" style="stop-color:#F37746;stop-opacity:0.5"/>
			<stop  offset="0.9267" style="stop-color:#FB8BD3;stop-opacity:0"/>
		</linearGradient>
		<path fill="url(#SVGID_8_)" d="M936.661,40c0,0-87.675,47.595-94.682,50.917c-7.011,3.324-13.735,3.819-15.021,1.106
			c-1.286-2.712,3.353-7.605,10.359-10.929C844.327,77.77,936.661,40,936.661,40z"/>
	</g>
</g>
<g>
	<g>
		<path fill="#F4D3A6" d="M516,39.5c1.935,0,1.935-3,0-3S514.065,39.5,516,39.5L516,39.5z"/>
	</g>
</g>
<g>
	<g>
		<path fill="#F4D3A6" d="M1088,57.5c1.935,0,1.935-3,0-3S1086.065,57.5,1088,57.5L1088,57.5z"/>
	</g>
</g>
<g>
	<g>
		<path fill="#F4D3A6" d="M197,116.5c1.935,0,1.935-3,0-3S195.065,116.5,197,116.5L197,116.5z"/>
	</g>
</g>
<g>
	<g>
		<path fill="#F4D3A6" d="M45,28.5c1.935,0,1.935-3,0-3S43.065,28.5,45,28.5L45,28.5z"/>
	</g>
</g>
<g>
	<g>
		<path fill="#F4D3A6" d="M840,150c3.869,0,3.869-6,0-6S836.131,150,840,150L840,150z"/>
	</g>
</g>
</svg>
