<?xml version="1.0" encoding="utf-8"?>
<!-- Generator: Adobe Illustrator 16.0.0, SVG Export Plug-In . SVG Version: 6.00 Build 0)  -->
<!DOCTYPE svg PUBLIC "-//W3C//DTD SVG 1.1//EN" "http://www.w3.org/Graphics/SVG/1.1/DTD/svg11.dtd">
<svg version="1.1" id="Capa_1" xmlns="http://www.w3.org/2000/svg" xmlns:xlink="http://www.w3.org/1999/xlink" x="0px" y="0px"
	 width="1140px" height="190px" viewBox="0 0 1140 190" enable-background="new 0 0 1140 190" xml:space="preserve">
<rect fill="#3BAD9F" width="1140" height="190"/>
<g>
	<path fill="#CECDCC" d="M745.337,14.449c11.458-6.402,28.211-8.216,41.881-8.196c42.247,0.063,82.198,20.114,115.81,44.154
		c12.646,9.045,24.219,19.426,36.622,28.782c10.788,8.137,22.19,15.47,34.163,21.738c18.547,9.71,38.925,16.521,59.962,17.311
		c36.343,1.363,66.73-19.463,84.818-49.962c11.317-19.084,17.746-40.872,21.359-62.641c0.629-3.784-5.153-5.405-5.785-1.595
		c-6.261,37.715-22.017,78.397-57.016,98.109c-37.238,20.974-81.389,5.951-115.053-14.814
		c-25.308-15.611-46.576-36.688-71.666-52.674c-19.197-12.231-40.013-22.231-61.961-28.405c-24.491-6.889-51.727-8.83-76.262-1.003
		c-3.354,1.07-6.816,2.293-9.902,4.018C738.931,11.156,741.955,16.338,745.337,14.449L745.337,14.449z"/>
</g>
<g>
	<path fill="#CECDCC" d="M748.277,13.449c11.458-6.402,28.211-8.216,41.881-8.196c42.247,0.063,82.198,20.114,115.81,44.154
		c12.646,9.045,24.219,19.426,36.622,28.782c10.788,8.137,22.19,15.47,34.163,21.738c18.547,9.71,38.925,16.521,59.962,17.311
		c36.343,1.363,66.73-19.463,84.818-49.962c8.77-14.789,18.468-47.969,18.468-47.969L1140,0.892c0,0-2.61,0.448-2.893,2.147
		c-6.261,37.715-22.017,78.397-57.016,98.109c-37.238,20.974-81.389,5.951-115.053-14.814
		c-25.308-15.611-46.576-36.688-71.666-52.674c-19.197-12.231-40.013-22.231-61.961-28.405c-8.222-2.313-25.387-5.083-25.387-5.083
		L775.099,0c0,0-13.454,2.18-19.948,4.251c-3.354,1.07-6.816,2.293-9.902,4.018C741.871,10.156,744.896,15.338,748.277,13.449
		L748.277,13.449z"/>
</g>
<ellipse fill="#B7B3B3" cx="743.763" cy="90.911" rx="62.263" ry="80.989"/>
<ellipse fill="#FFFFFF" cx="746.763" cy="90.911" rx="62.263" ry="80.989"/>
<path fill="#CECDCC" d="M738.805,17.413c0,0-30.896,4.205-42.133,45.877h42.133V17.413z"/>
<path fill="#CECDCC" d="M755.657,17.413c0,0,30.896,4.205,42.133,45.877h-42.133V17.413z"/>
<path fill="#CECDCC" d="M696.672,68.908H797.79c0,0,6.555,96.436-50.56,96.437C689.182,165.346,696.672,68.908,696.672,68.908z"/>
<g>
	<polygon fill="#7F7D7D" points="497.046,189.782 404.298,25.531 447.739,1.001 479.972,0.901 586.47,189.5 	"/>
	<polygon fill="#7F7D7D" points="487.324,32.226 435.075,61.73 417.016,29.749 469.262,1.239 	"/>
	
		<rect x="444.294" y="51.808" transform="matrix(0.8708 -0.4917 0.4917 0.8708 26.7911 242.2759)" fill="#7F7D7D" width="60.004" height="36.727"/>
	
		<rect x="466.42" y="90.99" transform="matrix(0.8708 -0.4917 0.4917 0.8708 10.3883 258.231)" fill="#7F7D7D" width="60.004" height="36.727"/>
	
		<rect x="488.547" y="130.175" transform="matrix(0.8708 -0.4917 0.4917 0.8708 -6.0209 274.1675)" fill="#7F7D7D" width="60.004" height="36.726"/>
</g>
<g>
	<polygon fill="#FFFFFF" points="499.74,189.999 406.302,24.529 449.74,0 482.03,0.003 589.318,190.003 	"/>
	<polygon fill="#D81919" points="489.495,31.527 437.249,61.029 419.056,28.811 471.302,0.309 	"/>
	
		<rect x="446.566" y="51.144" transform="matrix(0.8708 -0.4917 0.4917 0.8708 27.3449 243.3269)" fill="#DD3E3E" width="60" height="37"/>
	
		<rect x="468.856" y="90.617" transform="matrix(0.8708 -0.4917 0.4917 0.8708 10.8191 259.3973)" fill="#E26060" width="60" height="37"/>
	
		<rect x="491.147" y="130.093" transform="matrix(0.8708 -0.4917 0.4917 0.8708 -5.712 275.4521)" fill="#F48484" width="60" height="37"/>
</g>
<g>
	<polygon fill="#B7B2B2" points="662.569,174.478 642.581,190.041 576.922,189.967 453.832,31.885 492.474,1.797 528.145,1.84 	"/>
	<polygon fill="#B7B2B2" points="536.249,26.727 489.458,63.161 466.938,34.237 508.576,1.815 516.859,1.825 	"/>
	
		<rect x="499.536" y="47.591" transform="matrix(0.789 -0.6144 0.6144 0.789 71.1497 339.0244)" fill="#B7B2B2" width="59.302" height="36.657"/>
	
		<rect x="527.129" y="83.029" transform="matrix(0.789 -0.6144 0.6144 0.789 55.2002 363.454)" fill="#B7B2B2" width="59.302" height="36.657"/>
	
		<rect x="554.723" y="118.466" transform="matrix(0.789 -0.6144 0.6144 0.789 39.2512 387.8864)" fill="#B7B2B2" width="59.302" height="36.658"/>
</g>
<g>
	<polygon fill="#FFFFFF" points="664.952,174.253 644.729,190 578.356,190.002 454.116,30.442 493.212,0 529.271,0.002 	"/>
	<polygon fill="#F0803F" points="537.434,25.135 490.093,61.997 467.361,32.803 509.489,0 517.863,0 	"/>
	
		<rect x="500.249" y="46.238" transform="matrix(0.789 -0.6144 0.6144 0.789 72.0992 339.4267)" fill="#EA8C5E" width="60" height="37"/>
	
		<rect x="528.1" y="82.007" transform="matrix(0.789 -0.6144 0.6144 0.789 56.0008 364.0847)" fill="#EA9C75" width="60" height="37"/>
	
		<rect x="555.952" y="117.775" transform="matrix(0.789 -0.6144 0.6144 0.789 39.9028 388.7453)" fill="#EAB296" width="60" height="37"/>
</g>
<rect x="850.5" y="118.301" fill="#EFC3B9" width="16.5" height="71.74"/>
<rect x="853.5" y="118.301" fill="#EFC3B9" width="118" height="71.74"/>
<rect x="853.5" y="118.301" fill="#C48D86" width="5" height="71.74"/>
</svg>
