<?xml version="1.0" encoding="utf-8"?>
<!-- Generator: Adobe Illustrator 16.0.0, SVG Export Plug-In . SVG Version: 6.00 Build 0)  -->
<!DOCTYPE svg PUBLIC "-//W3C//DTD SVG 1.1//EN" "http://www.w3.org/Graphics/SVG/1.1/DTD/svg11.dtd">
<svg version="1.1" id="Capa_1" xmlns="http://www.w3.org/2000/svg" xmlns:xlink="http://www.w3.org/1999/xlink" x="0px" y="0px"
	 width="26px" height="26px" viewBox="0 0 26 26" enable-background="new 0 0 26 26" xml:space="preserve">
<g id="surface1">
	<path fill="#FFFFFF" d="M10.108,11.528c0.054,0.418,0.08,0.855,0.08,1.302c0,0.483-0.033,0.952-0.094,1.393
		c-0.061,0.436-0.173,0.825-0.332,1.157c-0.151,0.324-0.364,0.587-0.634,0.782c-0.264,0.191-0.61,0.288-1.024,0.288
		c-0.029,0-0.076-0.003-0.148-0.007l-0.472-0.029c-0.018,0-0.036-0.004-0.047-0.004V9.484C7.505,9.477,7.595,9.47,7.7,9.466
		c0.162-0.007,0.321-0.007,0.479-0.007c0.418,0,0.761,0.09,1.02,0.267c0.26,0.177,0.465,0.421,0.61,0.721
		C9.953,10.753,10.058,11.121,10.108,11.528z M25,6.001v15c0,0.97,0,4.5,0,4.5s-2.984,0-4.5,0h-15c-1.081,0-4.5,0-4.5,0
		s0-3.096,0-4.5v-15c0-1.243,0-4.5,0-4.5s3.258,0,4.5,0h15c1.242,0,4.5,0,4.5,0S25,4.758,25,6.001z M12.369,12.859
		c0-0.793-0.072-1.521-0.209-2.167c-0.141-0.653-0.382-1.219-0.721-1.688c-0.339-0.476-0.797-0.844-1.359-1.103
		C9.517,7.645,8.813,7.515,7.984,7.515c-0.169,0-0.36,0.004-0.577,0.007c-0.22,0.004-0.443,0.015-0.678,0.029L6.051,7.595
		c-0.234,0.018-0.433,0.04-0.609,0.069C5.384,7.674,5.344,7.721,5.344,7.779v10.353c0,0.058,0.04,0.104,0.098,0.115
		c0.119,0.017,0.285,0.035,0.512,0.054l0.678,0.043c0.238,0.014,0.465,0.026,0.682,0.037c0.22,0.01,0.393,0.014,0.522,0.014
		c0.88,0,1.623-0.151,2.211-0.455c0.584-0.303,1.056-0.717,1.402-1.225c0.342-0.51,0.584-1.108,0.717-1.771
		C12.3,14.283,12.369,13.58,12.369,12.859z M21.716,10.757c0.007-0.032,0-0.068-0.021-0.097c-0.022-0.025-0.058-0.043-0.091-0.043
		h-1.597c-0.055,0-0.102,0.04-0.112,0.094l-0.696,3.774l-0.071,0.596l-0.087-0.599l-1.035-3.779
		c-0.015-0.05-0.058-0.087-0.111-0.087h-1.313c-0.055,0-0.102,0.036-0.112,0.09l-0.905,3.703l-0.09,0.638l-0.064-0.635l-0.798-3.706
		c-0.014-0.054-0.057-0.09-0.115-0.09h-1.904c-0.035,0-0.068,0.015-0.089,0.043c-0.022,0.029-0.029,0.065-0.022,0.098l1.894,7.46
		c0.011,0.051,0.058,0.087,0.111,0.087h1.432c0.055,0,0.098-0.036,0.112-0.087l1.067-4.106l0.039-0.368L17.18,14.1l1.106,4.121
		c0.015,0.051,0.058,0.083,0.112,0.083h1.388c0.055,0,0.102-0.036,0.112-0.087L21.716,10.757z"/>
</g>
</svg>
