<?xml version="1.0" encoding="utf-8"?>
<!-- Generator: Adobe Illustrator 16.0.0, SVG Export Plug-In . SVG Version: 6.00 Build 0)  -->
<!DOCTYPE svg PUBLIC "-//W3C//DTD SVG 1.1//EN" "http://www.w3.org/Graphics/SVG/1.1/DTD/svg11.dtd">
<svg version="1.1" id="Capa_1" xmlns="http://www.w3.org/2000/svg" xmlns:xlink="http://www.w3.org/1999/xlink" x="0px" y="0px"
	 width="26px" height="26px" viewBox="0 0 26 26" enable-background="new 0 0 26 26" xml:space="preserve">
<g id="surface1">
	<path fill="#FFFFFF" d="M84.727,78.968c0.426,3.294,0.625,6.729,0.625,10.251c0,3.805-0.256,7.496-0.738,10.961
		c-0.481,3.436-1.362,6.502-2.611,9.114c-1.191,2.556-2.868,4.628-4.997,6.162c-2.073,1.505-4.799,2.271-8.063,2.271
		c-0.229,0-0.598-0.027-1.164-0.057l-3.721-0.229c-0.143,0-0.283-0.027-0.369-0.027V62.867c0.539-0.057,1.25-0.113,2.072-0.143
		c1.278-0.057,2.527-0.057,3.776-0.057c3.294,0,5.991,0.71,8.036,2.102c2.044,1.392,3.662,3.321,4.799,5.68
		C83.506,72.863,84.329,75.759,84.727,78.968z M202,35.438v118.125c0,7.633,0,35.438,0,35.438s-23.505,0-35.438,0H48.438
		C39.928,189,13,189,13,189s0-24.383,0-35.438V35.438C13,25.655,13,0,13,0s25.654,0,35.438,0h118.125C176.346,0,202,0,202,0
		S202,25.655,202,35.438z M102.531,89.445c0-6.246-0.568-11.982-1.647-17.065c-1.106-5.14-3.01-9.598-5.679-13.289
		c-2.67-3.748-6.275-6.646-10.705-8.688c-4.43-2.017-9.967-3.038-16.498-3.038c-1.334,0-2.84,0.028-4.543,0.057
		c-1.732,0.029-3.493,0.114-5.339,0.228l-5.338,0.342c-1.847,0.143-3.407,0.313-4.8,0.539c-0.453,0.086-0.767,0.455-0.767,0.908
		v81.523c0,0.454,0.313,0.823,0.767,0.908c0.938,0.142,2.244,0.283,4.033,0.427l5.338,0.34c1.873,0.113,3.662,0.199,5.367,0.284
		c1.731,0.085,3.094,0.114,4.116,0.114c6.929,0,12.776-1.193,17.406-3.579c4.6-2.385,8.319-5.648,11.046-9.653
		c2.697-4.005,4.602-8.718,5.65-13.942C101.991,100.661,102.531,95.125,102.531,89.445z M176.132,72.891
		c0.058-0.255,0-0.539-0.171-0.766c-0.17-0.199-0.454-0.342-0.709-0.342h-12.58c-0.425,0-0.794,0.313-0.88,0.738l-5.479,29.729
		l-0.567,4.685l-0.683-4.713l-8.148-29.759c-0.114-0.397-0.454-0.682-0.88-0.682h-10.337c-0.426,0-0.795,0.284-0.881,0.711
		l-7.127,29.161l-0.709,5.025l-0.512-4.998l-6.275-29.188c-0.113-0.427-0.455-0.711-0.908-0.711h-14.993
		c-0.283,0-0.539,0.114-0.709,0.342c-0.171,0.228-0.228,0.511-0.171,0.767l14.908,58.75c0.084,0.396,0.453,0.682,0.88,0.682h11.272
		c0.426,0,0.768-0.284,0.879-0.682l8.406-32.343l0.313-2.896l0.341,2.812l8.718,32.455c0.113,0.397,0.454,0.653,0.88,0.653h10.933
		c0.427,0,0.795-0.284,0.881-0.682L176.132,72.891z"/>
</g>
</svg>
