<?xml version="1.0" encoding="utf-8"?>
<!-- Generator: Adobe Illustrator 16.0.0, SVG Export Plug-In . SVG Version: 6.00 Build 0)  -->
<!DOCTYPE svg PUBLIC "-//W3C//DTD SVG 1.1//EN" "http://www.w3.org/Graphics/SVG/1.1/DTD/svg11.dtd">
<svg version="1.1" id="Layer_1" xmlns="http://www.w3.org/2000/svg" xmlns:xlink="http://www.w3.org/1999/xlink" x="0px" y="0px"
	 width="600px" height="800px" viewBox="0 0 600 800" enable-background="new 0 0 600 800" xml:space="preserve">
<g>
	<path fill="#FFFFFF" d="M196.917,290.948c-14.597,0-24.66,1.457-29.732,2.913v94.515c6.195,1.332,13.68,1.789,24.075,1.789
		c38.463,0,62.374-19.461,62.374-52.311C253.469,308.456,233.135,290.948,196.917,290.948z"/>
	<path fill="#FFFFFF" d="M0,100v600h600V100H0z M295.673,412.123c-24.533,23.202-61.209,33.599-103.957,33.599
		c-9.396,0-18.005-0.333-24.657-1.29v114.52H95.412V243.004c22.249-3.741,53.6-6.654,97.762-6.654
		c44.702,0,76.511,8.44,97.802,25.656c20.625,16.093,34.263,42.748,34.263,74.102C325.239,367.421,314.846,394.075,295.673,412.123z
		 M403.872,563.649c-30.396,0-57.506-6.655-75.054-16.218l12.848-51.688c13.308,7.984,40.753,17.548,62.206,17.548
		c21.748,0,30.854-7.608,30.854-19.502c0-11.853-7.152-17.507-34.096-26.613c-48.11-16.091-66.617-42.248-66.117-69.859
		c0-43.204,37.05-76.014,94.518-76.014c27.154,0,51.355,6.154,65.618,13.307l-12.81,49.898
		c-10.562-5.695-30.396-13.348-50.354-13.348c-17.547,0-27.445,7.152-27.445,19.005c0,10.893,8.942,16.59,37.343,26.655
		c44.202,15.093,62.706,37.507,63.207,71.647C504.588,531.838,470.281,563.649,403.872,563.649z"/>
</g>
</svg>
